<?xml version="1.0" standalone="no"?><!DOCTYPE svg PUBLIC "-//W3C//DTD SVG 1.1//EN" "http://www.w3.org/Graphics/SVG/1.1/DTD/svg11.dtd"><svg t="1543989961736" class="icon" style="" viewBox="0 0 1024 1024" version="1.1" xmlns="http://www.w3.org/2000/svg" p-id="5527" id="mx_n_1543989961739" xmlns:xlink="http://www.w3.org/1999/xlink" width="200" height="200"><defs><style type="text/css"></style></defs><path d="M512 512m-480.0512 0a480.0512 480.0512 0 1 0 960.1024 0 480.0512 480.0512 0 1 0-960.1024 0Z" fill="#F0EEE2" p-id="5528"></path><path d="M768 512c0-5.7344-3.072-10.9568-7.9872-13.824l-384-224.0512c-7.5776-4.5056-17.408-1.9456-21.8112 5.7344-1.4336 2.4576-2.1504 5.2224-2.1504 8.0896v448c0 8.8064 7.168 15.9744 15.9744 15.9744 2.8672 0 5.632-0.7168 8.0896-2.1504l384-224.0512c4.8128-2.7648 7.8848-7.9872 7.8848-13.7216z" fill="#BBAA9C" p-id="5529"></path><path d="M816.0256 655.9744c-8.8064 0-15.9744 7.168-15.9744 15.9744s7.168 15.9744 15.9744 15.9744 15.9744-7.168 15.9744-15.9744-7.168-15.9744-15.9744-15.9744zM496.0256 159.9488c0-8.8064-7.168-15.9744-15.9744-15.9744h-79.9744c-8.8064 0.2048-15.7696 7.5776-15.5648 16.384 0.2048 8.4992 7.0656 15.36 15.5648 15.5648h79.9744c8.8064 0.1024 15.9744-7.0656 15.9744-15.9744zM176.0256 736.0512h-64c-8.8064 0.2048-15.7696 7.5776-15.5648 16.384 0.2048 8.4992 7.0656 15.36 15.5648 15.5648h64c8.8064-0.2048 15.7696-7.5776 15.5648-16.384-0.2048-8.4992-7.0656-15.36-15.5648-15.5648z m351.9488-144.0768c0 8.8064 7.168 15.9744 15.9744 15.9744h79.9744l31.9488-31.9488H543.9488c-8.8064 0-15.9744 7.168-15.9744 15.9744z m-64-159.9488h-32.0512c-8.8064 0.2048-15.7696 7.5776-15.5648 16.384 0.2048 8.4992 7.0656 15.36 15.5648 15.5648H463.872c8.8064-0.2048 15.7696-7.5776 15.5648-16.384-0.1024-8.4992-6.9632-15.36-15.4624-15.5648zM128 399.9744c0-8.8064-7.168-15.9744-15.9744-15.9744H48.0256c-8.8064 0-15.9744 7.168-15.9744 15.9744s7.168 15.9744 15.9744 15.9744h64c8.8064 0 15.9744-7.0656 15.9744-15.9744z m79.9744 176.0256h-15.9744c-8.8064 0.2048-15.7696 7.5776-15.5648 16.384 0.2048 8.4992 7.0656 15.36 15.5648 15.5648h15.9744c8.8064 0.2048 16.1792-6.7584 16.384-15.5648 0.2048-8.8064-6.7584-16.1792-15.5648-16.384h-0.8192z m608.0512 271.9744h-128c-8.8064 0-15.9744 7.168-15.9744 15.9744s7.168 15.9744 15.9744 15.9744h128c8.8064 0 15.9744-7.168 15.9744-15.9744s-7.168-15.9744-15.9744-15.9744z m31.9488-495.9232h-31.9488c-8.8064-0.2048-16.1792 6.7584-16.384 15.5648s6.7584 16.1792 15.5648 16.384h32.768c8.8064-0.2048 15.7696-7.5776 15.5648-16.384-0.2048-8.4992-6.9632-15.36-15.5648-15.5648zM527.9744 783.9744h-32.0512c-8.8064 0-15.9744 7.168-15.9744 15.9744s7.168 15.9744 15.9744 15.9744h31.9488c8.8064 0 15.9744-7.168 15.9744-15.9744s-7.0656-15.9744-15.872-15.9744zM640 287.9488h-48.0256c-8.8064-0.2048-16.1792 6.7584-16.384 15.5648s6.7584 16.1792 15.5648 16.384H640c8.8064-0.2048 15.7696-7.5776 15.5648-16.384-0.2048-8.3968-7.0656-15.2576-15.5648-15.5648z" fill="#D8D5BA" p-id="5530"></path><path d="M768.1024 484.4544L386.2528 261.632c-14.7456-10.0352-34.816-6.2464-44.8512 8.4992-3.584 5.2224-5.5296 11.4688-5.632 17.8176v448.1024c0.2048 17.8176 14.7456 32.1536 32.6656 31.9488 6.3488-0.1024 12.5952-2.048 17.8176-5.632L768.1024 539.648v-0.1024c15.2576-8.9088 20.3776-28.4672 11.4688-43.6224-2.7648-4.8128-6.656-8.704-11.4688-11.4688zM368.0256 736.0512V287.9488l384 224.0512-384 224.0512zM512 0C229.2736 0 0 229.2736 0 512s229.2736 512 512 512 512-229.2736 512-512S794.7264 0 512 0z m0 960.1024C264.4992 960.1024 63.8976 759.5008 63.8976 512S264.4992 63.8976 512 63.8976 960.1024 264.4992 960.1024 512 759.5008 960.1024 512 960.1024z" fill="#5F4E56" p-id="5531"></path></svg>